# xmcd CD database file
#
# Track frame offsets:
#	150
#	1415
#	22350
#	37501
#	65056
#	82010
#	104999
#	123186
#	128035
#	152337
#	178213
#
# Disc length: 2552 seconds
#
# Revision: 0
# Processed by: cddbd v1.5.1PL0 Copyright (c) Steve Scherf et al.
# Submitted via: CDex 1.51
#
DISCID=8f09f60b
DTITLE=Throwcurve - Retro Electric Mother
DYEAR=1900
DGENRE=Rock
TTITLE0=Hello
TTITLE1=ノーモア
TTITLE2=ドーナツと魔法と針
TTITLE3=無音ノート
TTITLE4=Ghost Note
TTITLE5=ハッピー
TTITLE6=レム
TTITLE7=Nice Parade
TTITLE8=841
TTITLE9=ベッドタイマー
TTITLE10=Untitled
EXTD=
EXTT0=
EXTT1=
EXTT2=
EXTT3=
EXTT4=
EXTT5=
EXTT6=
EXTT7=
EXTT8=
EXTT9=
EXTT10=
PLAYORDER=
